<svg width="286" height="127" viewBox="0 0 286 127" fill="none" xmlns="http://www.w3.org/2000/svg">
<path fill-rule="evenodd" clip-rule="evenodd" d="M0 0H286V53.844L0 126.97V0ZM0 126.97L0.00765855 127H0V126.97ZM35.336 43.888C35.336 41.744 35.832 39.992 36.824 38.632C37.752 38.04 38.92 37.744 40.328 37.744C42.024 37.744 43.32 38.344 44.216 39.544C45.128 40.744 45.584 42.456 45.584 44.68C45.584 46.888 45.088 48.6 44.096 49.816C43.2 50.408 42.04 50.704 40.616 50.704C38.904 50.704 37.592 50.104 36.68 48.904C35.784 47.704 35.336 46.032 35.336 43.888ZM33.728 40.72C33.312 41.776 33.104 42.976 33.104 44.32C33.104 46.784 33.768 48.712 35.096 50.104C36.424 51.496 38.128 52.192 40.208 52.192C42.288 52.192 44.048 51.544 45.488 50.248C46.208 49.608 46.776 48.768 47.192 47.728C47.608 46.672 47.816 45.472 47.816 44.128C47.816 41.664 47.152 39.728 45.824 38.32C44.496 36.912 42.792 36.208 40.712 36.208C38.648 36.208 36.88 36.864 35.408 38.176C34.704 38.816 34.144 39.664 33.728 40.72ZM54.4419 42.784C55.0179 42.656 55.5139 42.592 55.9299 42.592V44.416L56.5059 44.584L58.0659 42.496C57.9219 42.224 57.6579 41.936 57.2739 41.632C56.8899 41.312 56.5299 41.104 56.1939 41.008C55.8579 41.056 55.3379 41.216 54.6339 41.488C53.9459 41.744 53.4899 41.96 53.2659 42.136L53.1699 42.088L53.0739 41.2L52.5939 41.008L49.4979 42.136L49.6419 42.664L51.3219 42.928V50.104C51.3219 50.344 51.2659 50.528 51.1539 50.656C51.0579 50.784 50.8659 50.904 50.5779 51.016L49.4979 51.472L49.6419 52H55.2579L55.4019 51.472L53.2659 50.704V43.096C53.4899 43 53.8819 42.896 54.4419 42.784ZM63.1739 52.192C64.4699 52.192 65.6379 51.888 66.6779 51.28L66.7739 51.328L67.4699 52.048L67.8059 52.192L70.0859 52L70.2299 51.472L68.5739 50.704V35.68L68.0939 35.488L64.8059 36.616L64.9499 37.144L66.6299 37.408V41.224L66.2939 41.152C65.7179 41.056 65.0859 41.008 64.3979 41.008C62.8299 41.008 61.5339 41.496 60.5099 42.472C59.5019 43.432 58.9979 44.76 58.9979 46.456C58.9979 48.136 59.3659 49.512 60.1019 50.584C60.8539 51.656 61.8779 52.192 63.1739 52.192ZM64.2539 42.544C65.1979 42.544 65.9899 42.656 66.6299 42.88V50.224C65.7979 50.432 64.9899 50.536 64.2059 50.536C62.0939 50.536 61.0379 49.136 61.0379 46.336C61.0379 44.832 61.3339 43.688 61.9259 42.904C62.5499 42.664 63.3259 42.544 64.2539 42.544ZM73.049 42.496C72.041 43.472 71.537 44.84 71.537 46.6C71.537 48.36 72.001 49.736 72.929 50.728C73.857 51.704 75.065 52.192 76.553 52.192C77.209 52.192 77.833 52.088 78.425 51.88C79.033 51.656 79.473 51.448 79.745 51.256C80.017 51.048 80.249 50.848 80.441 50.656L80.105 50.032C79.161 50.448 78.169 50.656 77.129 50.656C76.105 50.656 75.265 50.288 74.609 49.552C73.953 48.816 73.609 47.832 73.577 46.6H80.297L80.657 46.24V45.448C80.657 44.072 80.313 42.992 79.625 42.208C78.937 41.408 77.921 41.008 76.577 41.008C75.233 41.008 74.057 41.504 73.049 42.496ZM74.465 42.904C74.945 42.664 75.561 42.544 76.313 42.544C77.929 42.544 78.737 43.504 78.737 45.424L73.601 45.568C73.617 45.088 73.713 44.584 73.889 44.056C74.081 43.528 74.273 43.144 74.465 42.904ZM87.0669 42.784C87.6429 42.656 88.1389 42.592 88.5549 42.592V44.416L89.1309 44.584L90.6909 42.496C90.5469 42.224 90.2829 41.936 89.8989 41.632C89.5149 41.312 89.1549 41.104 88.8189 41.008C88.4829 41.056 87.9629 41.216 87.2589 41.488C86.5709 41.744 86.1149 41.96 85.8909 42.136L85.7949 42.088L85.6989 41.2L85.2189 41.008L82.1229 42.136L82.2669 42.664L83.9469 42.928V50.104C83.9469 50.344 83.8909 50.528 83.7789 50.656C83.6829 50.784 83.4909 50.904 83.2029 51.016L82.1229 51.472L82.2669 52H87.8829L88.0269 51.472L85.8909 50.704V43.096C86.1149 43 86.5069 42.896 87.0669 42.784Z" fill="#C63C33"/>
</svg>
