<svg width="219" height="58" viewBox="0 0 219 58" fill="none" xmlns="http://www.w3.org/2000/svg">
<rect width="219" height="58" fill="#C63C33"/>
<path d="M181.822 16.3051L183.354 21.8388L188.31 21.8388L184.3 25.2588L185.832 30.7926L181.822 27.3725L177.812 30.7926L179.344 25.2588L175.334 21.8388L180.29 21.8388L181.822 16.3051Z" fill="#FAAE1B"/>
<path d="M200.212 8L201.744 13.5337L206.7 13.5337L202.69 16.9537L204.222 22.4875L200.212 19.0674L196.202 22.4875L197.734 16.9537L193.724 13.5337L198.68 13.5337L200.212 8Z" fill="#FAAE1B"/>
<path d="M200.212 26.983L201.744 32.5168L206.7 32.5168L202.69 35.9368L204.222 41.4705L200.212 38.0505L196.202 41.4705L197.734 35.9368L193.724 32.5168L198.68 32.5168L200.212 26.983Z" fill="#FAAE1B"/>
<path d="M17.828 30.172C17.3 30.172 16.484 30.148 15.38 30.1V37.804L18.836 39.208L18.62 40H9.44L9.224 39.208L11.204 38.38C11.636 38.212 11.924 38.032 12.068 37.84C12.236 37.648 12.32 37.372 12.32 37.012V18.652L9.224 17.392L9.44 16.6C13.256 16.408 15.92 16.312 17.432 16.312C20.576 16.312 22.904 16.876 24.416 18.004C25.952 19.108 26.72 20.824 26.72 23.152C26.72 27.832 23.756 30.172 17.828 30.172ZM18.044 18.292H16.352C15.704 18.292 15.38 18.592 15.38 19.192V28.12C16.004 28.216 16.724 28.264 17.54 28.264C19.22 28.264 20.732 27.988 22.076 27.436C22.94 26.764 23.372 25.528 23.372 23.728C23.372 20.104 21.596 18.292 18.044 18.292ZM31.182 37.156V26.392L28.662 25.996L28.446 25.204L33.378 23.512L34.098 23.8V38.056L36.942 39.208L36.726 40H28.662L28.446 39.208L30.066 38.524C30.498 38.356 30.786 38.176 30.93 37.984C31.098 37.792 31.182 37.516 31.182 37.156ZM32.442 19.768C31.89 19.768 31.422 19.588 31.038 19.228C30.678 18.844 30.498 18.376 30.498 17.824C30.498 17.248 30.678 16.768 31.038 16.384C31.422 16 31.89 15.808 32.442 15.808C33.018 15.808 33.498 16 33.882 16.384C34.266 16.768 34.458 17.248 34.458 17.824C34.458 18.376 34.266 18.844 33.882 19.228C33.498 19.588 33.018 19.768 32.442 19.768ZM51.3595 40H38.5795L38.3635 38.956L47.6875 25.456L41.6755 25.6L39.9475 28.624L39.0835 28.372V24.16L39.4435 23.8H51.1435L51.3595 24.988L42.1435 38.344L48.7675 38.2L50.4955 35.176L51.3595 35.428V40ZM66.7931 40H54.0131L53.7971 38.956L63.1211 25.456L57.1091 25.6L55.3811 28.624L54.5171 28.372V24.16L54.8771 23.8H66.5771L66.7931 24.988L57.5771 38.344L64.2011 38.2L65.9291 35.176L66.7931 35.428V40ZM72.3627 35.212C72.3627 36.22 72.6387 36.928 73.1907 37.336C73.7427 37.744 74.3787 37.948 75.0987 37.948C75.8427 37.948 76.8267 37.744 78.0507 37.336L78.1227 33.16C75.0507 33.328 73.1427 33.856 72.3987 34.744C72.3747 34.864 72.3627 35.02 72.3627 35.212ZM78.0867 38.92C76.5267 39.832 75.0987 40.288 73.8027 40.288C72.5067 40.288 71.4747 39.88 70.7067 39.064C69.9627 38.224 69.5907 37.168 69.5907 35.896C69.5907 34.6 70.2147 33.604 71.4627 32.908C72.7347 32.212 74.9547 31.768 78.1227 31.576L78.1587 29.236C78.1827 28.156 77.9187 27.292 77.3667 26.644C76.8387 25.972 76.1067 25.636 75.1707 25.636C74.2347 25.636 73.4187 25.744 72.7227 25.96L72.4347 28.696L71.5707 28.948L69.5907 26.14C70.1187 25.54 70.9107 24.952 71.9667 24.376C73.0227 23.8 74.2827 23.512 75.7467 23.512C79.3227 23.512 81.1107 25.684 81.1107 30.028L80.9307 38.056L83.4147 38.92L83.1987 39.712L80.1387 40.288L79.4187 40L78.2667 38.992L78.0867 38.92ZM87.6703 19.12C87.6703 19.264 87.6943 19.42 87.7423 19.588L92.5303 36.112L98.0023 17.32L100.198 16.6L100.882 16.96L106.534 36.112L111.61 18.652L108.514 17.392L108.73 16.6H116.722L116.938 17.392L114.958 18.22C114.55 18.388 114.286 18.556 114.166 18.724C114.046 18.868 113.914 19.156 113.77 19.588L107.686 39.64L105.022 40.288L104.302 40L98.9743 22.036L93.8983 39.64L91.1263 40.288L90.4062 40L83.8903 18.544L81.0822 17.392L81.2982 16.6H90.1183L90.3343 17.392L88.3543 18.22C87.8983 18.412 87.6703 18.712 87.6703 19.12ZM119.057 31.504C119.057 35.824 120.701 37.984 123.989 37.984C125.189 37.984 126.221 37.804 127.085 37.444C127.973 36.292 128.417 34.576 128.417 32.296C128.417 27.976 126.773 25.816 123.485 25.816C122.285 25.816 121.253 25.996 120.389 26.356C119.501 27.508 119.057 29.224 119.057 31.504ZM123.521 40.288C121.289 40.288 119.477 39.556 118.085 38.092C116.693 36.628 115.997 34.564 115.997 31.9C115.997 29.212 116.765 27.148 118.301 25.708C119.837 24.244 121.721 23.512 123.953 23.512C126.185 23.512 127.997 24.244 129.389 25.708C130.781 27.172 131.477 29.248 131.477 31.936C131.477 34.6 130.709 36.664 129.173 38.128C127.637 39.568 125.753 40.288 123.521 40.288ZM143.352 25.888C142.728 25.888 141.984 25.984 141.12 26.176C140.28 26.344 139.692 26.5 139.356 26.644V38.056L142.56 39.208L142.344 40H133.92L133.704 39.208L135.324 38.524C135.756 38.356 136.044 38.176 136.188 37.984C136.356 37.792 136.44 37.516 136.44 37.156V26.392L133.92 25.996L133.704 25.204L138.348 23.512L139.068 23.8L139.212 25.132L139.356 25.204C139.692 24.94 140.376 24.616 141.408 24.232C142.464 23.824 143.244 23.584 143.748 23.512C144.252 23.656 144.792 23.968 145.368 24.448C145.944 24.904 146.34 25.336 146.556 25.744L144.216 28.876L143.352 28.624V25.888ZM149.861 37.156V18.112L147.341 17.716L147.125 16.924L152.057 15.232L152.777 15.52V38.056L155.621 39.208L155.405 40H147.341L147.125 39.208L148.745 38.524C149.177 38.356 149.465 38.176 149.609 37.984C149.777 37.792 149.861 37.516 149.861 37.156ZM168.896 38.92C167.336 39.832 165.584 40.288 163.64 40.288C161.696 40.288 160.16 39.484 159.032 37.876C157.928 36.268 157.376 34.204 157.376 31.684C157.376 29.14 158.132 27.148 159.644 25.708C161.18 24.244 163.124 23.512 165.476 23.512C166.508 23.512 167.456 23.584 168.32 23.728L168.824 23.836V18.112L166.304 17.716L166.088 16.924L171.02 15.232L171.74 15.52V38.056L174.224 39.208L174.008 40L170.588 40.288L170.084 40.072L169.04 38.992L168.896 38.92ZM168.824 26.32C167.864 25.984 166.676 25.816 165.26 25.816C163.868 25.816 162.704 25.996 161.768 26.356C160.88 27.532 160.436 29.248 160.436 31.504C160.436 35.704 162.02 37.804 165.188 37.804C166.364 37.804 167.576 37.648 168.824 37.336V26.32Z" fill="white"/>
</svg>
